<svg width="614" height="49" viewBox="0 0 614 49" fill="none" xmlns="http://www.w3.org/2000/svg">
<path d="M4.88 38.048L11.36 37.904C11.264 37.856 11.024 37.568 10.976 37.136L9.296 25.616L12.464 20.672L20.912 32.336H28.448L16.4 15.536L24.944 2.192C25.184 1.904 25.424 1.664 25.616 1.568L18.128 1.664L8.144 16.64L6.8 7.328H0.656L4.88 37.52C4.928 37.952 5.072 38 4.88 38.048ZM44.0079 11.504L44.3919 16.448C47.4639 17.072 49.8639 19.424 50.2959 22.688L45.3999 22.496L46.0239 27.008L56.0559 26.864C56.1999 26.192 56.2479 24.656 56.1039 23.36C55.2879 17.6 51.2559 12.272 44.0079 11.504ZM30.9519 25.616C32.0559 33.584 38.1519 38.672 46.5519 38.672C51.5439 38.672 55.4319 37.424 57.3519 35.744L55.5279 31.232C53.7999 32.768 50.4879 33.536 46.8399 33.536C42.4719 33.536 38.1519 31.088 37.3839 26.816L35.6079 13.232C31.8639 15.632 30.1839 20.288 30.9519 25.616ZM63.4168 38H69.3688L64.0888 0.223997L58.1848 0.559999L63.4168 38ZM77.561 48.368H83.513L79.625 21.152C80.201 19.136 82.313 16.352 85.865 16.352C90.665 16.352 94.073 19.856 94.841 25.088C95.321 28.832 94.025 33.2 89.369 33.68L89.753 38.672C97.289 38.528 101.801 32.576 100.601 24.32C99.593 17.168 94.601 11.408 86.969 11.408C82.937 11.408 80.201 13.712 78.953 15.872L78.329 12.032H72.425L77.561 48.368ZM106.415 6.896C108.767 6.896 109.871 5.024 109.583 3.2C109.391 1.616 107.999 0.127998 106.079 0.127998C103.775 0.127998 102.527 2 102.767 3.872C103.007 5.408 104.303 6.896 106.415 6.896ZM107.999 38H113.951L110.303 11.888L104.399 12.272L107.999 38ZM130.867 11.504L131.251 16.448C134.323 17.072 136.723 19.424 137.155 22.688L132.259 22.496L132.883 27.008L142.915 26.864C143.059 26.192 143.107 24.656 142.963 23.36C142.147 17.6 138.115 12.272 130.867 11.504ZM117.811 25.616C118.915 33.584 125.011 38.672 133.411 38.672C138.403 38.672 142.291 37.424 144.211 35.744L142.387 31.232C140.659 32.768 137.347 33.536 133.699 33.536C129.331 33.536 125.011 31.088 124.243 26.816L122.467 13.232C118.723 15.632 117.043 20.288 117.811 25.616ZM184.59 38L191.358 37.904C191.262 37.856 191.022 37.568 190.83 37.184L173.55 2.192C173.31 1.808 173.118 1.616 173.166 1.52L165.966 1.76C166.11 1.856 166.35 2.144 166.254 2.48L161.934 22.4L167.934 22.448L170.574 8.912L184.59 38ZM197.189 12.032H203.333L202.709 7.328H207.605C207.941 7.328 208.229 7.52 208.373 7.664L207.653 1.664C207.653 1.808 207.413 1.664 207.125 1.664H190.805C190.373 1.664 190.085 1.52 190.037 1.424L190.757 7.424C190.757 7.232 190.853 7.328 191.285 7.328H196.565L197.189 12.032ZM195.077 38.096C195.077 37.904 195.173 38 195.605 38H211.925C212.261 38 212.549 38.192 212.693 38.336L211.973 32.336C211.925 32.48 211.733 32.336 211.445 32.336H206.213L204.869 22.688H198.725L200.069 32.336H195.125C194.693 32.336 194.405 32.192 194.357 32.096L195.077 38.096ZM215.876 19.616C216.068 21.248 217.364 22.688 219.476 22.688C221.828 22.688 222.932 20.864 222.692 18.944C222.596 18.272 222.26 17.504 221.636 16.88L216.548 17.168C216.02 17.792 215.732 18.656 215.876 19.616ZM217.508 31.328C217.556 31.808 217.748 32.432 218.132 32.96L224.036 32.672C224.276 32.144 224.42 31.472 224.324 30.656C224.084 29.12 222.692 27.632 220.82 27.632C218.468 27.632 217.22 29.504 217.508 31.328ZM275.092 38.048L281.572 37.904C281.476 37.856 281.236 37.568 281.188 37.136L276.244 2.144C276.196 1.808 276.148 1.664 276.244 1.52L269.812 1.664L261.652 22.688H268.372L271.588 12.944L275.092 37.52C275.14 37.952 275.236 38 275.092 38.048ZM246.292 38.048L252.772 37.904C252.676 37.856 252.436 37.568 252.388 37.136L248.932 12.944L254.788 22.688H261.652L247.732 1.664L240.916 1.76C241.108 1.904 241.3 2.192 241.348 2.528L246.292 37.52C246.34 37.952 246.484 38 246.292 38.048ZM298.586 11.504L298.97 16.448C302.042 17.072 304.442 19.424 304.874 22.688L299.978 22.496L300.602 27.008L310.634 26.864C310.778 26.192 310.826 24.656 310.682 23.36C309.866 17.6 305.834 12.272 298.586 11.504ZM285.53 25.616C286.634 33.584 292.73 38.672 301.13 38.672C306.122 38.672 310.01 37.424 311.93 35.744L310.106 31.232C308.378 32.768 305.066 33.536 301.418 33.536C297.05 33.536 292.73 31.088 291.962 26.816L290.186 13.232C286.442 15.632 284.762 20.288 285.53 25.616ZM333.643 38H339.595L337.003 20.144C337.915 18.272 339.787 16.784 342.091 16.784C344.683 16.784 346.891 18.896 347.323 21.92L348.139 27.632H353.995L353.131 21.536C352.219 15.008 348.907 11.408 343.291 11.408C339.163 11.408 336.715 13.52 335.323 15.248C334.027 13.232 331.819 11.408 328.123 11.408C324.571 11.408 321.643 13.568 320.395 15.344L319.819 12.032H313.867L316.075 27.632H322.027L320.923 20.432C321.979 18.464 324.283 16.928 326.491 16.928C329.035 16.928 330.955 18.896 331.387 21.776L333.643 38ZM378.338 38.192C384.674 36.704 387.986 31.136 387.074 24.608C386.258 18.656 381.554 13.424 374.93 11.792L375.41 17.456C378.482 18.896 380.738 21.968 381.218 25.376C381.698 28.64 380.594 31.472 377.858 32.768L378.338 38.192ZM370.562 38.288L370.082 32.624C367.01 31.28 364.802 28.304 364.274 24.704C363.842 21.584 364.994 18.752 367.634 17.312L367.154 11.936C361.058 13.568 357.602 19.136 358.466 25.376C359.378 31.664 363.842 36.8 370.562 38.288ZM392.774 27.632H398.678L397.67 20.768C398.438 18.272 399.926 16.64 402.422 16.64C403.862 16.64 404.822 17.36 405.398 18.032L406.31 12.224C405.446 11.696 404.342 11.408 403.286 11.408C399.734 11.408 397.91 13.04 396.998 15.056L396.47 12.032H390.566L392.774 27.632ZM418.54 27.632L420.364 20.528L415.132 12.032H408.604L418.54 27.632ZM416.956 48.896C423.1 48.896 427.084 44.672 429.148 36.272L435.196 12.032H428.956L423.388 35.12C421.852 41.168 418.588 43.952 415.084 43.952C413.884 43.952 413.116 43.664 412.636 43.424L414.892 48.464C415.228 48.656 416.188 48.896 416.956 48.896ZM486.451 38.048L492.931 37.904C492.835 37.856 492.595 37.568 492.547 37.136L487.603 2.144C487.555 1.808 487.507 1.664 487.603 1.52L481.171 1.664L473.011 22.688H479.731L482.947 12.944L486.451 37.52C486.499 37.952 486.595 38 486.451 38.048ZM457.651 38.048L464.131 37.904C464.035 37.856 463.795 37.568 463.747 37.136L460.291 12.944L466.147 22.688H473.011L459.091 1.664L452.275 1.76C452.467 1.904 452.659 2.192 452.707 2.528L457.651 37.52C457.699 37.952 457.843 38 457.651 38.048ZM511.289 38.576L510.905 33.728C506.777 33.2 503.273 29.264 502.601 24.608C501.881 19.568 504.713 16.16 509.033 16.16C512.729 16.16 515.417 18.416 516.617 20.48L518.681 35.072C519.641 37.712 522.473 38.576 524.201 38.576C526.889 38.576 528.521 37.424 529.097 36.128L527.273 33.2C527.129 33.488 526.745 33.584 526.313 33.584C524.921 33.584 524.249 32.24 523.913 30.08L521.321 12.032H515.561L515.993 15.152C514.985 13.712 512.105 11.408 508.169 11.408C500.729 11.408 495.737 17.312 496.841 25.184C497.849 32.48 504.089 38.384 511.289 38.576ZM547.393 38L533.377 12.032H527.185L541.201 38H547.393ZM546.049 20.192L550.033 27.632L554.161 12.032H548.113L546.049 20.192ZM571.258 11.504L571.642 16.448C574.714 17.072 577.114 19.424 577.546 22.688L572.65 22.496L573.274 27.008L583.306 26.864C583.45 26.192 583.498 24.656 583.354 23.36C582.538 17.6 578.506 12.272 571.258 11.504ZM558.202 25.616C559.306 33.584 565.402 38.672 573.802 38.672C578.794 38.672 582.682 37.424 584.602 35.744L582.778 31.232C581.05 32.768 577.738 33.536 574.09 33.536C569.722 33.536 565.402 31.088 564.634 26.816L562.858 13.232C559.114 15.632 557.434 20.288 558.202 25.616ZM588.747 27.632H594.699L593.739 21.44C594.987 18.896 597.051 17.12 599.883 17.12C602.475 17.12 604.875 19.136 605.307 22.064L607.515 38H613.419L611.163 21.68C610.155 14.576 606.843 11.408 600.939 11.408C596.859 11.408 594.171 13.952 593.115 15.728L592.491 12.032H586.539L588.747 27.632Z" fill="#080F2A"/>
</svg>
